<svg id="svg" version="1.1" xmlns="http://www.w3.org/2000/svg" xmlns:xlink="http://www.w3.org/1999/xlink" width="400" height="400" viewBox="0, 0, 400,400"><g id="svgg"><path id="path0" d="M227.200 167.888 C 224.256 168.006,218.580 168.752,216.600 169.281 C 212.997 170.243,209.733 171.303,207.000 172.399 C 206.560 172.575,205.570 172.951,204.800 173.234 C 202.178 174.198,194.608 177.864,191.995 179.434 C 190.562 180.295,188.926 181.240,188.360 181.533 C 177.284 187.262,162.534 203.604,155.987 217.400 C 153.405 222.841,153.458 222.713,152.195 226.574 C 151.624 228.319,151.081 229.869,150.990 230.017 C 150.898 230.165,149.333 229.853,147.511 229.323 C 135.531 225.835,124.800 225.574,112.800 228.479 C 110.050 229.144,107.620 229.817,107.400 229.972 C 107.180 230.128,106.190 230.509,105.200 230.819 C 89.948 235.587,72.451 253.080,66.809 269.200 C 66.291 270.682,65.978 271.507,65.250 273.319 C 65.002 273.934,64.800 274.869,64.800 275.395 C 64.800 275.922,64.640 276.452,64.444 276.573 C 64.249 276.694,63.974 277.469,63.834 278.296 C 63.693 279.123,63.372 280.970,63.119 282.400 C 62.126 288.009,62.603 302.526,63.954 307.800 C 64.180 308.680,64.476 309.940,64.612 310.600 C 64.749 311.260,65.009 312.160,65.190 312.600 C 65.371 313.040,65.736 314.030,66.000 314.800 C 69.154 323.986,74.549 332.506,81.851 339.830 C 84.804 342.793,91.558 348.400,92.174 348.400 C 92.267 348.400,93.391 349.086,94.672 349.924 C 97.274 351.627,99.417 352.685,105.400 355.221 C 118.581 360.807,136.860 360.938,151.200 355.549 C 154.700 354.233,154.855 354.168,157.800 352.750 C 171.469 346.172,181.969 335.717,188.682 322.000 C 190.568 318.145,193.200 311.022,193.200 309.771 C 193.200 308.112,194.274 308.834,199.784 314.200 C 211.137 325.255,218.350 329.639,229.600 332.322 C 230.590 332.558,231.850 332.860,232.400 332.995 C 237.949 334.348,257.391 333.774,266.800 331.979 C 268.010 331.748,269.720 331.460,270.600 331.339 C 271.480 331.217,272.371 330.956,272.580 330.759 C 272.789 330.562,273.366 330.400,273.861 330.400 C 274.357 330.400,275.176 330.239,275.681 330.042 C 276.187 329.845,277.410 329.464,278.400 329.196 C 279.390 328.928,280.560 328.558,281.000 328.375 C 281.440 328.191,282.700 327.748,283.800 327.391 C 285.811 326.738,286.524 326.449,290.200 324.791 C 291.300 324.295,293.344 323.373,294.742 322.743 C 301.975 319.479,316.400 306.787,316.400 303.685 C 316.400 303.487,316.760 302.998,317.200 302.600 C 317.640 302.202,318.000 301.735,318.000 301.563 C 318.000 300.589,327.532 287.597,330.005 285.200 C 333.658 281.658,338.820 272.866,340.856 266.715 C 342.907 260.522,343.362 257.302,343.360 249.000 C 343.358 241.746,343.192 239.540,342.413 236.400 C 340.163 227.329,337.581 220.794,334.323 215.922 C 333.485 214.669,332.800 213.546,332.800 213.426 C 332.800 212.200,321.480 200.078,318.358 197.962 C 308.543 191.309,304.968 189.554,294.800 186.394 C 292.490 185.676,289.610 184.778,288.400 184.398 C 287.190 184.018,285.390 183.477,284.400 183.196 C 277.418 181.215,270.014 178.450,259.806 174.013 C 255.348 172.075,249.999 170.203,246.200 169.252 C 242.764 168.392,232.685 167.668,227.200 167.888 " stroke="none" fill="#a44d4d" fill-rule="evenodd"></path><path id="path1" d="M137.600 98.869 C 136.830 99.083,135.480 99.445,134.600 99.675 C 130.450 100.759,125.065 104.174,121.430 108.027 C 119.121 110.475,115.600 115.173,115.600 115.807 C 115.600 116.175,114.510 117.201,114.129 117.192 C 113.948 117.187,112.360 116.113,110.600 114.805 C 86.591 96.958,54.324 103.417,46.675 127.600 C 42.933 139.432,46.481 158.266,54.360 168.400 C 58.654 173.922,58.667 174.071,55.046 176.188 C 42.494 183.529,36.621 197.303,40.642 209.973 C 41.821 213.686,41.894 213.105,39.982 215.214 C 36.360 219.210,33.927 222.853,32.447 226.500 C 31.465 228.918,31.275 229.462,30.878 231.000 C 29.515 236.270,29.302 239.307,30.005 243.427 C 32.583 258.533,42.997 269.594,60.358 275.666 C 64.049 276.957,64.800 276.918,64.800 275.431 C 64.800 274.885,65.002 273.934,65.250 273.319 C 65.978 271.507,66.291 270.682,66.809 269.200 C 71.087 256.976,82.417 243.308,94.026 236.367 C 97.543 234.264,103.260 231.425,105.200 230.819 C 106.190 230.509,107.180 230.128,107.400 229.972 C 107.620 229.817,110.050 229.144,112.800 228.479 C 124.800 225.574,135.531 225.835,147.511 229.323 C 149.333 229.853,150.898 230.165,150.990 230.017 C 151.081 229.869,151.624 228.319,152.195 226.574 C 157.933 209.040,173.614 189.614,188.733 181.307 C 191.674 179.691,196.800 176.712,196.800 176.619 C 196.800 176.566,196.505 175.932,196.145 175.210 C 194.588 172.090,195.100 169.198,197.692 166.462 C 201.516 162.427,207.857 163.679,210.339 168.959 C 211.265 170.929,211.145 170.918,215.800 169.443 C 216.900 169.094,218.284 168.807,218.876 168.804 C 220.552 168.798,220.968 167.206,220.028 164.400 C 219.844 163.850,219.471 162.590,219.200 161.600 C 217.812 156.531,213.682 147.600,212.726 147.600 C 212.547 147.600,212.400 147.348,212.400 147.040 C 212.400 144.802,203.649 137.931,197.800 135.577 C 195.104 134.491,189.834 134.224,186.400 135.000 C 182.153 135.959,181.448 135.959,181.290 135.000 C 181.161 134.212,180.646 132.868,179.953 131.505 C 179.759 131.123,179.599 130.583,179.597 130.305 C 179.596 130.027,178.525 127.682,177.217 125.093 C 171.523 113.824,164.114 105.972,155.200 101.757 C 151.920 100.207,151.402 100.029,146.600 98.811 C 144.633 98.311,139.494 98.345,137.600 98.869 M119.640 125.256 C 124.545 126.899,126.532 133.539,123.311 137.519 C 117.502 144.695,106.045 137.647,110.193 129.449 C 110.819 128.212,111.447 127.200,111.590 127.200 C 111.733 127.200,112.206 126.867,112.643 126.461 C 114.288 124.928,117.177 124.430,119.640 125.256 M266.921 133.098 C 269.077 133.171,272.497 133.170,274.521 133.098 C 276.544 133.025,274.780 132.966,270.600 132.967 C 266.420 132.967,264.764 133.026,266.921 133.098 M159.926 172.874 C 167.247 176.362,163.833 188.137,155.686 187.498 C 148.405 186.927,145.700 176.970,151.802 173.199 C 154.675 171.423,156.711 171.342,159.926 172.874 M89.468 204.063 C 97.098 207.620,93.743 219.363,85.286 218.698 C 79.548 218.247,76.159 211.860,79.152 207.139 C 81.714 203.100,85.182 202.065,89.468 204.063 M193.423 309.300 C 189.114 323.473,183.227 333.420,174.284 341.635 L 171.851 343.871 173.860 344.109 C 181.011 344.956,185.373 348.768,186.378 355.051 C 187.736 363.534,192.702 367.437,201.756 367.135 C 212.244 366.785,215.597 362.318,215.604 348.685 L 215.608 340.600 216.797 338.525 C 218.092 336.267,219.240 335.269,223.182 332.971 C 225.363 331.699,225.643 331.417,224.982 331.158 C 214.369 326.989,209.671 323.827,199.784 314.200 C 194.346 308.904,193.695 308.403,193.423 309.300 " stroke="none" fill="#b8e451" fill-rule="evenodd"></path><path id="path2" d="M176.000 70.840 C 168.217 72.884,163.710 75.496,158.227 81.141 C 151.455 88.112,145.090 99.200,147.859 99.200 C 150.457 99.200,157.539 102.527,162.000 105.843 C 168.304 110.530,179.577 126.200,179.597 130.305 C 179.599 130.583,179.759 131.123,179.953 131.505 C 180.646 132.868,181.161 134.212,181.290 135.000 C 181.448 135.959,182.153 135.959,186.400 135.000 C 189.834 134.224,195.104 134.491,197.800 135.577 C 203.649 137.931,212.400 144.802,212.400 147.040 C 212.400 147.348,212.547 147.600,212.726 147.600 C 213.682 147.600,217.812 156.531,219.200 161.600 C 219.471 162.590,219.844 163.850,220.028 164.400 C 220.513 165.848,220.620 167.720,220.252 168.316 C 219.939 168.822,220.523 168.782,222.914 168.131 C 224.289 167.757,237.383 167.959,240.975 168.410 C 246.916 169.155,252.353 170.773,259.806 174.013 C 270.014 178.450,277.418 181.215,284.400 183.196 C 285.390 183.477,287.190 184.018,288.400 184.398 C 289.610 184.778,292.490 185.676,294.800 186.393 C 300.198 188.070,302.710 189.008,306.342 190.703 L 309.283 192.076 310.678 190.738 C 321.616 180.246,323.402 166.094,315.189 155.000 C 313.108 152.189,309.822 149.194,306.448 147.031 C 304.547 145.812,303.663 145.015,303.853 144.691 C 304.013 144.421,305.155 142.670,306.391 140.800 C 309.214 136.530,311.466 132.126,312.191 129.459 C 312.499 128.327,312.957 126.770,313.208 126.000 C 318.187 110.753,311.950 93.282,299.360 87.210 C 296.295 85.732,296.526 85.726,295.864 87.300 C 295.564 88.015,294.547 89.368,293.605 90.307 C 292.020 91.886,291.356 92.290,288.281 93.544 C 287.590 93.826,284.458 94.001,280.081 94.002 C 270.185 94.005,266.892 95.449,266.196 100.087 C 265.349 105.738,269.156 109.192,276.246 109.206 C 280.517 109.214,282.690 110.019,285.641 112.685 C 287.094 113.997,287.485 114.633,288.744 117.719 C 290.911 123.034,286.783 130.736,280.840 132.465 C 277.268 133.504,243.909 132.970,241.400 131.834 C 233.758 128.373,231.968 118.565,237.898 112.636 C 239.275 111.258,239.901 110.887,242.919 109.656 C 243.534 109.405,245.493 109.200,247.272 109.200 C 257.564 109.200,261.723 99.001,253.074 94.974 L 251.000 94.008 220.731 94.004 C 187.513 94.000,187.687 94.011,184.531 91.626 C 177.493 86.307,178.002 76.802,185.591 71.834 L 187.782 70.400 182.591 70.436 C 179.736 70.456,176.770 70.638,176.000 70.840 M114.618 125.292 C 113.968 125.528,113.079 126.054,112.643 126.461 C 112.206 126.867,111.733 127.200,111.590 127.200 C 111.447 127.200,110.819 128.212,110.193 129.449 C 106.045 137.647,117.502 144.695,123.311 137.519 C 128.060 131.651,121.709 122.718,114.618 125.292 M200.440 164.552 C 196.647 165.924,194.412 170.364,195.663 174.040 C 196.625 176.868,196.657 176.876,200.233 175.208 C 202.004 174.381,204.161 173.464,205.027 173.171 C 205.892 172.877,206.771 172.493,206.980 172.318 C 207.189 172.143,207.572 172.000,207.831 172.000 C 209.799 172.000,211.162 170.802,210.631 169.539 C 208.811 165.209,204.482 163.091,200.440 164.552 M154.306 171.986 C 147.670 174.060,146.297 182.208,151.917 186.166 C 158.736 190.969,167.358 182.317,162.726 175.319 C 161.073 172.820,156.909 171.172,154.306 171.986 M84.365 203.182 C 81.089 203.800,78.000 207.504,78.000 210.815 C 78.000 218.466,87.898 221.646,92.269 215.400 C 96.281 209.668,91.247 201.885,84.365 203.182 " stroke="none" fill="#4e9346" fill-rule="evenodd"></path><path id="path3" d="M307.600 31.200 C 307.222 31.445,289.974 31.590,260.906 31.594 C 209.463 31.601,211.217 31.505,207.668 34.506 C 206.430 35.552,206.159 35.616,203.868 35.398 C 195.524 34.607,192.825 34.406,187.800 34.205 C 182.032 33.973,167.706 34.535,162.400 35.200 C 154.198 36.228,148.424 37.197,143.200 38.419 C 142.210 38.651,140.590 39.002,139.600 39.199 C 138.610 39.397,137.170 39.759,136.400 40.004 C 135.630 40.249,134.010 40.714,132.800 41.038 C 128.526 42.182,120.398 44.876,116.500 46.439 C 116.005 46.638,115.195 46.962,114.700 47.159 C 114.205 47.357,113.080 47.828,112.200 48.207 C 111.320 48.585,109.970 49.163,109.200 49.491 C 107.187 50.348,97.493 55.205,94.200 57.006 C 89.581 59.533,84.293 62.806,79.200 66.290 C 77.809 67.242,68.186 74.513,66.002 76.262 C 57.961 82.703,44.475 96.643,38.588 104.600 C 37.937 105.480,37.313 106.290,37.201 106.400 C 32.647 110.880,14.000 143.203,14.000 146.616 C 14.000 146.722,13.656 147.572,13.236 148.504 C 11.194 153.039,7.832 163.021,6.400 168.800 C 6.209 169.570,5.848 170.920,5.596 171.800 C 5.345 172.680,4.973 174.165,4.770 175.100 C 4.566 176.035,4.212 177.655,3.982 178.700 C 2.192 186.826,0.640 198.122,0.147 206.600 C -0.148 211.674,0.367 225.267,0.843 224.973 C 1.039 224.852,1.200 225.933,1.200 227.376 C 1.200 228.859,1.374 230.000,1.600 230.000 C 1.829 230.000,2.000 231.200,2.000 232.800 C 2.000 234.400,2.171 235.600,2.400 235.600 C 2.620 235.600,2.800 236.500,2.800 237.600 C 2.800 238.700,2.980 239.600,3.200 239.600 C 3.420 239.600,3.600 240.410,3.600 241.400 C 3.600 242.390,3.780 243.200,4.000 243.200 C 4.220 243.200,4.400 244.100,4.400 245.200 C 4.400 246.300,4.580 247.200,4.800 247.200 C 5.020 247.200,5.200 247.740,5.200 248.400 C 5.200 249.060,5.343 249.600,5.518 249.600 C 5.693 249.600,5.881 250.275,5.936 251.100 C 5.990 251.925,6.207 252.660,6.418 252.733 C 6.628 252.807,6.800 253.572,6.800 254.433 C 6.800 255.295,6.980 256.000,7.200 256.000 C 7.420 256.000,7.600 256.630,7.600 257.400 C 7.600 258.170,7.780 258.800,8.000 258.800 C 8.220 258.800,8.400 259.149,8.400 259.576 C 8.400 260.003,8.583 260.466,8.807 260.604 C 9.030 260.742,9.100 261.038,8.962 261.261 C 8.668 261.737,10.459 267.595,10.900 267.598 C 11.065 267.599,11.200 268.140,11.200 268.800 C 11.200 269.460,11.380 270.000,11.600 270.000 C 11.820 270.000,12.000 270.362,12.000 270.805 C 12.000 271.248,12.180 271.968,12.400 272.405 C 12.620 272.842,12.980 273.558,13.200 273.995 C 13.420 274.432,13.600 275.062,13.600 275.395 C 13.600 275.728,13.780 276.000,14.000 276.000 C 14.220 276.000,14.400 276.360,14.400 276.800 C 14.400 277.240,14.580 277.600,14.800 277.600 C 15.020 277.600,15.200 278.140,15.200 278.800 C 15.200 279.460,15.380 280.000,15.600 280.000 C 15.820 280.000,16.000 280.360,16.000 280.800 C 16.000 281.240,16.180 281.600,16.400 281.600 C 16.620 281.600,16.800 281.960,16.800 282.400 C 16.800 282.840,16.980 283.200,17.200 283.200 C 17.420 283.200,17.600 283.549,17.600 283.976 C 17.600 284.403,17.780 284.864,18.000 285.000 C 18.220 285.136,18.400 285.597,18.400 286.024 C 18.400 286.451,18.580 286.800,18.800 286.800 C 19.020 286.800,19.200 287.160,19.200 287.600 C 19.200 288.040,19.380 288.400,19.600 288.400 C 19.820 288.400,20.000 288.634,20.000 288.920 C 20.000 289.656,20.941 291.593,21.300 291.597 C 21.465 291.599,21.600 291.920,21.600 292.312 C 21.600 292.703,21.960 293.283,22.400 293.600 C 22.840 293.917,23.200 294.497,23.200 294.888 C 23.200 295.280,23.380 295.600,23.600 295.600 C 23.820 295.600,24.000 295.960,24.000 296.400 C 24.000 296.840,24.180 297.200,24.400 297.200 C 24.620 297.200,24.800 297.560,24.800 298.000 C 24.800 298.440,24.980 298.800,25.200 298.800 C 25.420 298.800,25.600 299.147,25.600 299.571 C 25.600 299.996,25.825 300.581,26.100 300.871 C 26.375 301.162,27.035 302.210,27.567 303.200 C 28.794 305.485,30.855 308.559,31.277 308.733 C 31.455 308.807,31.600 309.172,31.600 309.545 C 31.600 309.918,31.960 310.483,32.400 310.800 C 32.840 311.117,33.200 311.657,33.200 312.000 C 33.200 312.343,33.560 312.883,34.000 313.200 C 34.440 313.517,34.800 314.025,34.800 314.328 C 34.800 314.631,35.340 315.383,36.000 316.000 C 36.660 316.617,37.200 317.285,37.200 317.485 C 37.200 317.685,37.556 318.231,37.991 318.699 C 38.427 319.166,38.832 319.770,38.891 320.042 C 38.951 320.314,39.675 321.247,40.500 322.116 C 41.325 322.985,42.000 323.880,42.000 324.105 C 42.000 324.330,42.540 325.029,43.200 325.660 C 43.860 326.291,44.400 326.952,44.400 327.130 C 44.400 327.308,45.480 328.584,46.800 329.967 C 48.120 331.350,49.200 332.627,49.200 332.804 C 49.200 332.981,51.079 334.988,53.376 337.263 C 58.442 342.282,57.718 341.558,62.737 346.624 C 65.012 348.921,67.018 350.800,67.194 350.800 C 67.370 350.800,68.743 351.970,70.246 353.400 C 71.748 354.830,73.135 356.000,73.328 356.000 C 73.521 356.000,74.183 356.540,74.800 357.200 C 75.417 357.860,76.096 358.400,76.310 358.400 C 76.524 358.400,77.387 359.030,78.228 359.800 C 79.069 360.570,79.951 361.200,80.190 361.200 C 80.428 361.200,80.883 361.560,81.200 362.000 C 81.517 362.440,82.107 362.800,82.512 362.800 C 82.916 362.800,83.136 362.980,83.000 363.200 C 82.864 363.420,82.994 363.600,83.288 363.600 C 83.583 363.600,84.083 363.960,84.400 364.400 C 84.717 364.840,85.257 365.200,85.600 365.200 C 85.943 365.200,86.483 365.560,86.800 366.000 C 87.117 366.440,87.657 366.800,88.000 366.800 C 88.343 366.800,88.883 367.160,89.200 367.600 C 89.517 368.040,90.082 368.400,90.455 368.400 C 90.828 368.400,91.193 368.545,91.267 368.723 C 91.459 369.191,95.065 371.600,95.572 371.600 C 95.807 371.600,96.000 371.746,96.000 371.925 C 96.000 372.104,96.634 372.499,97.409 372.803 C 98.183 373.107,99.108 373.677,99.464 374.070 C 99.819 374.463,100.715 374.898,101.455 375.037 C 102.195 375.175,102.800 375.449,102.800 375.645 C 102.800 375.840,103.160 376.000,103.600 376.000 C 104.040 376.000,104.400 376.180,104.400 376.400 C 104.400 376.620,104.720 376.800,105.112 376.800 C 105.503 376.800,106.083 377.160,106.400 377.600 C 106.717 378.040,107.297 378.400,107.688 378.400 C 108.080 378.400,108.400 378.580,108.400 378.800 C 108.400 379.020,108.760 379.200,109.200 379.200 C 109.640 379.200,110.000 379.380,110.000 379.600 C 110.000 379.820,110.360 380.000,110.800 380.000 C 111.240 380.000,111.600 380.180,111.600 380.400 C 111.600 380.620,112.050 380.800,112.600 380.800 C 113.150 380.800,113.600 380.980,113.600 381.200 C 113.600 381.420,113.870 381.600,114.200 381.600 C 114.530 381.600,114.800 381.780,114.800 382.000 C 114.800 382.220,115.250 382.400,115.800 382.400 C 116.350 382.400,116.800 382.580,116.800 382.800 C 116.800 383.020,117.160 383.200,117.600 383.200 C 118.040 383.200,118.400 383.380,118.400 383.600 C 118.400 383.820,118.745 384.000,119.167 384.000 C 119.588 384.000,119.993 384.178,120.067 384.397 C 120.140 384.615,120.695 384.834,121.300 384.884 C 121.905 384.934,122.400 385.115,122.400 385.287 C 122.400 385.459,122.760 385.600,123.200 385.600 C 123.640 385.600,124.000 385.780,124.000 386.000 C 124.000 386.220,124.360 386.400,124.800 386.400 C 125.240 386.400,125.600 386.580,125.600 386.800 C 125.600 387.020,126.039 387.200,126.576 387.200 C 127.113 387.200,127.664 387.380,127.800 387.600 C 127.936 387.820,128.376 388.000,128.778 388.000 C 129.180 388.000,130.011 388.261,130.626 388.580 C 131.240 388.898,131.891 389.068,132.071 388.956 C 132.252 388.844,132.400 388.943,132.400 389.176 C 132.400 389.409,132.749 389.600,133.176 389.600 C 133.603 389.600,134.064 389.780,134.200 390.000 C 134.336 390.220,134.799 390.400,135.229 390.400 C 135.659 390.400,136.323 390.571,136.705 390.780 C 137.087 390.988,138.255 391.269,139.300 391.404 C 140.345 391.539,141.200 391.780,141.200 391.939 C 141.200 392.099,141.785 392.274,142.500 392.328 C 143.215 392.381,143.860 392.600,143.933 392.813 C 144.007 393.026,144.772 393.200,145.633 393.200 C 146.495 393.200,147.200 393.380,147.200 393.600 C 147.200 393.820,147.920 394.000,148.800 394.000 C 149.680 394.000,150.400 394.180,150.400 394.400 C 150.400 394.620,150.940 394.800,151.600 394.800 C 152.260 394.800,152.800 394.980,152.800 395.200 C 152.800 395.420,153.700 395.600,154.800 395.600 C 155.900 395.600,156.800 395.780,156.800 396.000 C 156.800 396.220,157.711 396.400,158.824 396.400 C 160.071 396.400,160.752 396.553,160.600 396.800 C 160.448 397.047,161.129 397.200,162.376 397.200 C 163.489 397.200,164.400 397.380,164.400 397.600 C 164.400 397.829,165.608 398.000,167.224 398.000 C 169.004 398.000,169.956 398.148,169.800 398.400 C 169.644 398.652,170.569 398.800,172.296 398.800 C 173.805 398.800,175.224 398.984,175.448 399.208 C 176.063 399.823,194.703 400.232,197.300 399.688 C 198.455 399.445,201.200 399.048,203.400 398.804 C 219.652 397.005,240.876 391.564,252.712 386.164 C 253.873 385.634,254.904 385.200,255.002 385.200 C 255.312 385.200,260.447 382.804,264.800 380.628 C 297.049 364.507,324.499 338.415,342.134 307.122 C 345.769 300.670,351.039 289.816,352.680 285.400 C 353.007 284.520,353.421 283.440,353.600 283.000 C 356.956 274.755,361.073 260.150,362.762 250.500 C 364.011 243.370,364.356 240.839,365.215 232.550 C 365.759 227.290,365.756 207.060,365.209 201.850 C 364.289 193.080,363.936 190.128,363.599 188.400 C 363.406 187.410,363.036 185.340,362.778 183.800 C 360.727 171.598,356.369 157.361,350.349 143.200 C 348.740 139.414,343.014 128.371,340.602 124.400 C 339.332 122.310,338.086 120.240,337.832 119.800 C 324.658 96.950,296.776 70.663,270.900 56.696 C 269.305 55.835,268.000 54.969,268.000 54.772 C 268.000 54.565,281.910 54.338,300.900 54.234 C 318.995 54.136,335.005 53.975,336.478 53.878 C 338.965 53.713,340.770 52.904,340.114 52.248 C 339.978 52.111,340.167 52.000,340.533 52.000 C 340.900 52.000,341.200 51.828,341.200 51.618 C 341.200 51.408,341.622 50.814,342.138 50.298 C 344.340 48.096,344.472 38.184,342.330 35.824 C 341.919 35.371,341.092 34.453,340.491 33.784 C 338.003 31.012,336.655 30.799,321.647 30.806 C 313.656 30.810,307.957 30.970,307.600 31.200 M185.591 71.834 C 182.513 73.849,181.698 74.893,180.056 78.919 C 178.483 82.777,180.587 88.792,184.500 91.627 C 187.831 94.039,187.236 94.000,220.601 94.000 L 251.057 94.000 253.228 95.100 C 261.673 99.379,257.589 109.186,247.354 109.206 C 233.955 109.232,229.180 125.730,240.880 131.577 L 243.328 132.800 261.800 132.800 L 280.272 132.800 282.721 131.576 C 294.500 125.690,289.504 109.200,275.942 109.200 C 267.226 109.200,262.938 102.445,268.002 96.692 C 270.120 94.287,271.365 94.000,279.687 94.000 C 286.309 94.000,288.006 93.789,290.394 92.667 C 292.417 91.717,294.518 89.646,295.635 87.500 C 296.572 85.702,296.279 85.724,299.360 87.210 C 311.950 93.282,318.187 110.753,313.208 126.000 C 312.957 126.770,312.499 128.327,312.191 129.459 C 311.466 132.126,309.214 136.530,306.391 140.800 C 305.155 142.670,304.013 144.421,303.853 144.691 C 303.663 145.015,304.547 145.812,306.448 147.031 C 315.293 152.701,320.421 161.078,320.384 169.800 C 320.353 176.882,316.553 185.153,310.838 190.575 C 309.204 192.126,309.122 191.975,312.900 194.356 C 318.441 197.848,319.631 198.802,324.422 203.585 C 328.400 207.558,332.800 212.726,332.800 213.426 C 332.800 213.546,333.485 214.669,334.323 215.922 C 338.082 221.544,341.214 229.969,342.902 239.000 C 343.489 242.142,343.491 255.981,342.904 258.800 C 340.819 268.816,337.528 276.013,331.839 283.000 C 330.944 284.100,330.118 285.090,330.005 285.200 C 327.532 287.597,318.000 300.589,318.000 301.563 C 318.000 301.735,317.640 302.202,317.200 302.600 C 316.760 302.998,316.400 303.487,316.400 303.685 C 316.400 306.787,301.975 319.479,294.742 322.743 C 293.344 323.373,291.300 324.295,290.200 324.791 C 286.524 326.449,285.811 326.738,283.800 327.391 C 282.700 327.748,281.440 328.191,281.000 328.375 C 280.560 328.558,279.390 328.928,278.400 329.196 C 277.410 329.464,276.187 329.845,275.681 330.042 C 275.176 330.239,274.357 330.400,273.861 330.400 C 273.366 330.400,272.789 330.562,272.580 330.759 C 272.371 330.956,271.480 331.217,270.600 331.339 C 269.720 331.460,268.010 331.748,266.800 331.979 C 256.908 333.866,238.277 334.329,231.800 332.848 C 230.920 332.647,229.570 332.348,228.800 332.185 C 228.030 332.021,227.098 331.733,226.728 331.545 C 225.260 330.796,218.490 335.586,216.757 338.600 L 215.608 340.600 215.604 348.685 C 215.597 362.318,212.244 366.785,201.756 367.135 C 192.702 367.437,187.736 363.534,186.378 355.051 C 185.099 347.059,175.070 341.117,169.932 345.307 C 162.516 351.353,152.051 356.160,141.800 358.227 C 140.260 358.538,138.131 358.974,137.069 359.196 C 134.626 359.707,122.969 359.724,120.706 359.220 C 119.768 359.010,117.740 358.633,116.200 358.382 C 114.660 358.130,112.860 357.765,112.200 357.571 C 109.993 356.921,105.809 355.551,105.000 355.214 C 100.060 353.152,95.200 350.727,95.200 350.323 C 95.200 350.145,95.001 350.000,94.757 350.000 C 93.779 350.000,86.374 344.412,82.850 341.015 C 75.157 333.600,69.357 324.575,66.000 314.800 C 65.736 314.030,65.371 313.040,65.190 312.600 C 65.009 312.160,64.749 311.260,64.612 310.600 C 64.476 309.940,64.180 308.680,63.954 307.800 C 62.603 302.526,62.126 288.009,63.119 282.400 C 63.372 280.970,63.690 279.156,63.825 278.368 L 64.072 276.936 60.736 275.804 C 36.970 267.735,24.175 246.846,31.699 228.400 C 31.923 227.850,32.284 226.950,32.500 226.400 C 33.845 222.979,36.383 219.185,39.982 215.214 C 41.894 213.105,41.821 213.686,40.642 209.973 C 36.621 197.303,42.494 183.529,55.046 176.188 C 58.667 174.071,58.654 173.922,54.360 168.400 C 46.481 158.266,42.933 139.432,46.675 127.600 C 54.324 103.417,86.591 96.958,110.600 114.805 C 112.360 116.113,113.948 117.187,114.129 117.192 C 114.510 117.201,115.600 116.175,115.600 115.807 C 115.600 115.173,119.121 110.475,121.430 108.027 C 125.062 104.177,130.436 100.767,134.600 99.672 C 139.245 98.449,140.238 98.312,143.295 98.471 L 146.600 98.643 148.600 94.635 C 154.282 83.248,163.651 74.434,173.000 71.679 C 176.681 70.595,177.638 70.470,182.591 70.436 L 187.782 70.400 185.591 71.834 " stroke="none" fill="#a9c8cc" fill-rule="evenodd"></path><path id="path4" d="M179.100 0.274 C 176.955 0.359,175.200 0.602,175.200 0.814 C 175.200 1.027,173.867 1.200,172.224 1.200 C 170.587 1.200,169.136 1.380,169.000 1.600 C 168.864 1.820,167.863 2.000,166.776 2.000 C 165.689 2.000,164.800 2.180,164.800 2.400 C 164.800 2.620,163.821 2.800,162.624 2.800 C 161.427 2.800,160.336 2.980,160.200 3.200 C 160.064 3.420,159.243 3.600,158.376 3.600 C 157.509 3.600,156.800 3.780,156.800 4.000 C 156.800 4.220,156.091 4.400,155.224 4.400 C 154.357 4.400,153.536 4.580,153.400 4.800 C 153.264 5.020,152.343 5.200,151.353 5.200 C 150.255 5.200,149.649 5.356,149.800 5.600 C 149.947 5.838,149.479 6.000,148.647 6.000 C 147.877 6.000,147.136 6.180,147.000 6.400 C 146.864 6.620,146.234 6.800,145.600 6.800 C 144.966 6.800,144.336 6.980,144.200 7.200 C 144.064 7.420,143.434 7.600,142.800 7.600 C 142.166 7.600,141.536 7.780,141.400 8.000 C 141.264 8.220,140.720 8.400,140.191 8.400 C 139.662 8.400,138.368 8.740,137.315 9.155 C 136.262 9.570,135.310 9.903,135.200 9.896 C 134.860 9.873,133.050 10.429,132.000 10.879 C 131.450 11.114,130.640 11.439,130.200 11.600 C 128.354 12.276,125.269 13.557,124.305 14.047 C 123.923 14.241,123.383 14.406,123.105 14.413 C 122.827 14.419,121.525 14.959,120.210 15.613 C 118.896 16.266,117.591 16.800,117.310 16.800 C 117.030 16.800,116.800 16.980,116.800 17.200 C 116.800 17.420,116.440 17.600,116.000 17.600 C 115.560 17.600,115.200 17.780,115.200 18.000 C 115.200 18.220,114.851 18.400,114.424 18.400 C 113.997 18.400,113.536 18.580,113.400 18.800 C 113.264 19.020,112.803 19.200,112.376 19.200 C 111.949 19.200,111.599 19.335,111.597 19.500 C 111.593 19.859,109.656 20.800,108.920 20.800 C 108.634 20.800,108.400 20.939,108.400 21.109 C 108.400 21.279,107.143 22.044,105.606 22.809 C 104.070 23.574,102.810 24.335,102.806 24.500 C 102.803 24.665,102.455 24.800,102.033 24.800 C 101.612 24.800,101.207 24.935,101.133 25.100 C 101.017 25.362,98.434 26.817,95.703 28.159 C 95.210 28.402,94.805 28.735,94.803 28.900 C 94.801 29.065,94.613 29.200,94.384 29.200 C 94.027 29.200,91.799 30.600,91.200 31.201 C 91.090 31.311,90.505 31.656,89.900 31.968 C 89.295 32.280,88.800 32.685,88.800 32.868 C 88.800 33.050,88.528 33.200,88.196 33.200 C 87.864 33.200,87.028 33.740,86.337 34.400 C 85.646 35.060,84.838 35.600,84.541 35.600 C 84.243 35.600,84.000 35.738,84.000 35.906 C 84.000 36.074,83.280 36.656,82.400 37.200 C 81.520 37.744,80.800 38.326,80.800 38.494 C 80.800 38.662,80.622 38.800,80.405 38.800 C 80.053 38.800,79.294 39.336,77.855 40.600 C 77.605 40.820,76.680 41.533,75.800 42.186 C 74.920 42.838,73.991 43.558,73.735 43.786 C 73.479 44.013,72.706 44.631,72.018 45.158 C 71.330 45.685,69.836 46.990,68.699 48.058 C 67.561 49.126,66.499 50.000,66.338 50.000 C 66.065 50.000,61.799 54.183,58.944 57.251 C 58.253 57.993,56.093 60.131,54.144 62.001 C 52.195 63.872,50.302 65.864,49.938 66.429 C 49.574 66.993,48.584 68.176,47.738 69.057 C 46.892 69.938,45.750 71.246,45.200 71.964 C 44.650 72.682,44.013 73.479,43.786 73.735 C 43.558 73.991,42.838 74.916,42.186 75.792 C 40.701 77.786,39.938 78.744,39.300 79.416 C 39.025 79.706,38.800 80.136,38.800 80.371 C 38.800 80.607,38.662 80.800,38.494 80.800 C 38.326 80.800,37.744 81.520,37.200 82.400 C 36.656 83.280,36.074 84.000,35.906 84.000 C 35.738 84.000,35.600 84.243,35.600 84.541 C 35.600 84.838,35.060 85.646,34.400 86.337 C 33.740 87.028,33.200 87.864,33.200 88.196 C 33.200 88.528,33.050 88.800,32.868 88.800 C 32.685 88.800,32.280 89.295,31.968 89.900 C 31.656 90.505,31.311 91.090,31.201 91.200 C 30.753 91.646,29.200 93.984,29.200 94.212 C 29.200 94.346,28.698 95.208,28.085 96.128 C 27.472 97.048,26.617 98.520,26.185 99.400 C 25.753 100.280,25.265 101.060,25.100 101.133 C 24.935 101.207,24.800 101.612,24.800 102.033 C 24.800 102.455,24.665 102.803,24.500 102.806 C 24.335 102.810,23.574 104.070,22.809 105.606 C 22.044 107.143,21.279 108.400,21.109 108.400 C 20.939 108.400,20.800 108.634,20.800 108.920 C 20.800 109.656,19.859 111.593,19.500 111.597 C 19.335 111.599,19.200 111.949,19.200 112.376 C 19.200 112.803,19.020 113.264,18.800 113.400 C 18.580 113.536,18.400 113.997,18.400 114.424 C 18.400 114.851,18.220 115.200,18.000 115.200 C 17.780 115.200,17.600 115.560,17.600 116.000 C 17.600 116.440,17.420 116.800,17.200 116.800 C 16.980 116.800,16.800 117.160,16.800 117.600 C 16.800 118.040,16.620 118.400,16.400 118.400 C 16.180 118.400,16.000 118.665,16.000 118.989 C 16.000 119.313,15.614 120.438,15.141 121.489 C 14.669 122.540,14.129 123.805,13.941 124.300 C 13.754 124.795,13.396 125.695,13.146 126.300 C 12.897 126.905,12.537 127.805,12.346 128.300 C 12.156 128.795,11.844 129.605,11.654 130.100 C 11.463 130.595,11.115 131.450,10.880 132.000 C 10.645 132.550,10.235 133.720,9.969 134.600 C 9.703 135.480,9.241 136.879,8.943 137.708 C 8.644 138.538,8.400 139.652,8.400 140.184 C 8.400 140.717,8.220 141.264,8.000 141.400 C 7.780 141.536,7.600 142.166,7.600 142.800 C 7.600 143.434,7.420 144.064,7.200 144.200 C 6.980 144.336,6.800 144.966,6.800 145.600 C 6.800 146.234,6.620 146.864,6.400 147.000 C 6.180 147.136,6.000 147.877,6.000 148.647 C 6.000 149.479,5.838 149.947,5.600 149.800 C 5.356 149.649,5.200 150.255,5.200 151.353 C 5.200 152.343,5.020 153.264,4.800 153.400 C 4.580 153.536,4.400 154.357,4.400 155.224 C 4.400 156.091,4.220 156.800,4.000 156.800 C 3.780 156.800,3.600 157.509,3.600 158.376 C 3.600 159.243,3.420 160.064,3.200 160.200 C 2.980 160.336,2.800 161.427,2.800 162.624 C 2.800 163.821,2.620 164.800,2.400 164.800 C 2.180 164.800,2.000 165.689,2.000 166.776 C 2.000 167.863,1.820 168.864,1.600 169.000 C 1.380 169.136,1.200 170.572,1.200 172.190 C 1.200 173.937,1.025 175.192,0.769 175.277 C 0.478 175.374,0.266 179.957,0.115 189.410 C -0.100 202.935,0.200 206.735,0.879 199.091 C 1.503 192.064,2.542 185.240,3.982 178.700 C 4.212 177.655,4.566 176.035,4.770 175.100 C 4.973 174.165,5.345 172.680,5.596 171.800 C 5.848 170.920,6.209 169.570,6.400 168.800 C 7.832 163.021,11.194 153.039,13.236 148.504 C 13.656 147.572,14.000 146.722,14.000 146.616 C 14.000 143.203,32.647 110.880,37.201 106.400 C 37.313 106.290,37.937 105.480,38.588 104.600 C 44.475 96.643,57.961 82.703,66.002 76.262 C 68.186 74.513,77.809 67.242,79.200 66.290 C 84.293 62.806,89.581 59.533,94.200 57.006 C 97.519 55.190,107.167 50.359,109.300 49.443 C 115.376 46.837,115.507 46.784,119.600 45.258 C 122.399 44.214,129.932 41.806,132.800 41.038 C 134.010 40.714,135.630 40.249,136.400 40.004 C 137.170 39.759,138.610 39.397,139.600 39.199 C 140.590 39.002,142.210 38.651,143.200 38.419 C 148.424 37.197,154.198 36.228,162.400 35.200 C 167.706 34.535,182.032 33.973,187.800 34.205 C 192.825 34.406,195.524 34.607,203.868 35.398 C 206.159 35.616,206.430 35.552,207.668 34.506 C 211.217 31.505,209.463 31.601,260.906 31.594 C 304.578 31.588,309.994 31.465,307.693 30.534 C 307.414 30.421,306.932 30.075,306.621 29.764 C 306.311 29.454,305.942 29.200,305.801 29.200 C 305.660 29.200,304.759 28.660,303.800 28.000 C 302.841 27.340,301.885 26.800,301.677 26.800 C 301.468 26.800,301.074 26.530,300.800 26.200 C 300.526 25.870,299.964 25.600,299.551 25.600 C 299.138 25.600,298.800 25.420,298.800 25.200 C 298.800 24.980,298.455 24.800,298.033 24.800 C 297.612 24.800,297.207 24.665,297.133 24.500 C 296.954 24.096,294.938 22.919,293.100 22.145 C 292.275 21.797,291.600 21.353,291.600 21.157 C 291.600 20.960,291.150 20.800,290.600 20.800 C 290.050 20.800,289.600 20.653,289.600 20.474 C 289.600 20.008,286.469 18.400,285.562 18.400 C 285.143 18.400,284.800 18.220,284.800 18.000 C 284.800 17.780,284.440 17.600,284.000 17.600 C 283.560 17.600,283.200 17.420,283.200 17.200 C 283.200 16.980,282.851 16.800,282.424 16.800 C 281.997 16.800,281.536 16.620,281.400 16.400 C 281.264 16.180,280.793 16.000,280.353 16.000 C 279.913 16.000,279.642 15.856,279.751 15.680 C 279.860 15.504,279.105 15.113,278.074 14.812 C 277.043 14.512,275.930 14.130,275.600 13.965 C 273.962 13.146,271.162 12.000,270.799 12.000 C 270.574 12.000,270.077 11.841,269.695 11.647 C 268.132 10.852,265.817 10.001,264.600 9.774 C 264.380 9.733,263.339 9.407,262.286 9.050 C 261.233 8.692,260.029 8.400,259.610 8.400 C 259.190 8.400,258.736 8.220,258.600 8.000 C 258.464 7.780,257.834 7.600,257.200 7.600 C 256.566 7.600,255.936 7.420,255.800 7.200 C 255.664 6.980,255.034 6.800,254.400 6.800 C 253.766 6.800,253.136 6.620,253.000 6.400 C 252.864 6.180,252.123 6.000,251.353 6.000 C 250.521 6.000,250.053 5.838,250.200 5.600 C 250.351 5.356,249.745 5.200,248.647 5.200 C 247.657 5.200,246.736 5.020,246.600 4.800 C 246.464 4.580,245.643 4.400,244.776 4.400 C 243.909 4.400,243.200 4.220,243.200 4.000 C 243.200 3.780,242.491 3.600,241.624 3.600 C 240.757 3.600,239.936 3.420,239.800 3.200 C 239.664 2.980,238.563 2.800,237.353 2.800 C 235.988 2.800,235.247 2.648,235.400 2.400 C 235.553 2.152,234.812 2.000,233.447 2.000 C 232.237 2.000,231.136 1.820,231.000 1.600 C 230.864 1.380,229.449 1.200,227.856 1.200 C 226.127 1.200,224.765 1.005,224.477 0.717 C 223.998 0.238,188.674 -0.107,179.100 0.274 M333.800 54.000 C 333.360 54.189,318.375 54.356,300.500 54.372 C 281.182 54.389,268.000 54.548,268.000 54.765 C 268.000 54.966,269.305 55.835,270.900 56.696 C 296.776 70.663,324.658 96.950,337.832 119.800 C 338.086 120.240,339.332 122.310,340.602 124.400 C 343.014 128.371,348.740 139.414,350.349 143.200 C 356.369 157.361,360.727 171.598,362.778 183.800 C 363.036 185.340,363.406 187.410,363.599 188.400 C 363.936 190.128,364.289 193.080,365.209 201.850 C 365.756 207.060,365.759 227.290,365.215 232.550 C 364.356 240.839,364.011 243.370,362.762 250.500 C 361.073 260.150,356.956 274.755,353.600 283.000 C 353.421 283.440,353.007 284.520,352.680 285.400 C 351.039 289.816,345.769 300.670,342.134 307.122 C 324.499 338.415,297.049 364.507,264.800 380.628 C 260.447 382.804,255.312 385.200,255.002 385.200 C 254.904 385.200,253.873 385.634,252.712 386.164 C 242.794 390.689,222.431 396.283,209.600 398.008 C 207.730 398.259,205.105 398.630,203.767 398.832 C 202.429 399.035,200.629 399.213,199.767 399.228 C 198.905 399.244,197.840 399.426,197.400 399.634 C 196.889 399.875,201.638 399.948,210.548 399.837 C 219.770 399.722,224.643 399.517,224.928 399.232 C 225.166 398.994,226.573 398.800,228.056 398.800 C 229.539 398.800,230.864 398.620,231.000 398.400 C 231.136 398.180,232.126 398.000,233.200 398.000 C 234.274 398.000,235.264 397.820,235.400 397.600 C 235.536 397.380,236.627 397.200,237.824 397.200 C 239.021 397.200,240.000 397.020,240.000 396.800 C 240.000 396.580,240.720 396.400,241.600 396.400 C 242.480 396.400,243.200 396.220,243.200 396.000 C 243.200 395.780,243.999 395.600,244.976 395.600 C 245.953 395.600,246.864 395.420,247.000 395.200 C 247.136 394.980,247.967 394.800,248.847 394.800 C 249.812 394.800,250.349 394.641,250.200 394.400 C 250.053 394.162,250.521 394.000,251.353 394.000 C 252.123 394.000,252.864 393.820,253.000 393.600 C 253.136 393.380,253.877 393.200,254.647 393.200 C 255.479 393.200,255.947 393.038,255.800 392.800 C 255.653 392.562,256.121 392.400,256.953 392.400 C 257.723 392.400,258.451 392.241,258.571 392.046 C 258.692 391.852,259.557 391.577,260.495 391.435 C 262.342 391.156,265.019 390.315,265.459 389.874 C 265.610 389.723,266.072 389.600,266.486 389.600 C 266.900 389.600,267.984 389.240,268.894 388.800 C 269.805 388.360,270.866 388.000,271.252 388.000 C 271.637 388.000,272.064 387.820,272.200 387.600 C 272.336 387.380,272.797 387.200,273.224 387.200 C 273.651 387.200,274.000 387.020,274.000 386.800 C 274.000 386.580,274.349 386.400,274.776 386.400 C 275.203 386.400,275.664 386.220,275.800 386.000 C 275.936 385.780,276.315 385.600,276.643 385.600 C 276.971 385.600,277.984 385.240,278.894 384.800 C 279.805 384.360,280.786 384.000,281.075 384.000 C 281.364 384.000,281.600 383.820,281.600 383.600 C 281.600 383.380,281.960 383.200,282.400 383.200 C 282.840 383.200,283.200 383.020,283.200 382.800 C 283.200 382.580,283.560 382.400,284.000 382.400 C 284.440 382.400,284.800 382.259,284.800 382.087 C 284.800 381.915,285.592 381.541,286.559 381.255 C 287.526 380.970,288.689 380.390,289.142 379.968 C 289.596 379.546,290.334 379.200,290.783 379.200 C 291.232 379.200,291.600 379.020,291.600 378.800 C 291.600 378.580,291.945 378.400,292.367 378.400 C 292.788 378.400,293.193 378.265,293.267 378.100 C 293.434 377.724,295.564 376.425,296.500 376.129 C 296.885 376.007,297.200 375.748,297.200 375.553 C 297.200 375.359,297.442 375.200,297.739 375.200 C 298.428 375.200,300.840 374.006,301.528 373.324 C 301.818 373.037,302.493 372.691,303.028 372.557 C 303.563 372.423,304.000 372.153,304.000 371.957 C 304.000 371.760,304.270 371.600,304.600 371.600 C 304.930 371.600,305.200 371.420,305.200 371.200 C 305.200 370.980,305.470 370.800,305.800 370.800 C 306.130 370.800,306.400 370.642,306.400 370.449 C 306.400 370.255,306.940 369.873,307.600 369.600 C 308.260 369.327,308.800 368.967,308.800 368.800 C 308.800 368.633,309.340 368.273,310.000 368.000 C 310.660 367.727,311.200 367.345,311.200 367.151 C 311.200 366.958,311.520 366.800,311.912 366.800 C 312.303 366.800,312.883 366.440,313.200 366.000 C 313.517 365.560,313.962 365.200,314.188 365.200 C 314.415 365.199,315.140 364.734,315.800 364.165 C 316.460 363.596,317.495 362.837,318.100 362.479 C 318.705 362.121,319.200 361.686,319.200 361.514 C 319.200 361.341,319.470 361.200,319.800 361.200 C 320.130 361.200,320.400 361.020,320.400 360.800 C 320.400 360.580,320.582 360.400,320.804 360.400 C 321.026 360.400,321.767 359.865,322.450 359.212 C 323.134 358.559,324.032 357.917,324.447 357.785 C 324.861 357.654,325.200 357.380,325.200 357.178 C 325.200 356.976,325.913 356.360,326.785 355.809 C 327.657 355.259,329.182 353.997,330.175 353.004 C 331.167 352.012,332.145 351.200,332.349 351.200 C 332.552 351.200,334.672 349.226,337.059 346.814 C 342.319 341.499,341.499 342.319,346.814 337.059 C 349.226 334.672,351.200 332.552,351.200 332.349 C 351.200 332.145,351.965 331.201,352.900 330.249 C 353.835 329.298,354.870 328.101,355.200 327.590 C 355.530 327.079,356.295 326.125,356.900 325.471 C 357.505 324.817,358.000 324.155,358.000 324.000 C 358.000 323.845,358.540 323.154,359.200 322.463 C 359.860 321.772,360.400 321.026,360.400 320.804 C 360.400 320.582,360.580 320.400,360.800 320.400 C 361.020 320.400,361.200 320.130,361.200 319.800 C 361.200 319.470,361.341 319.200,361.514 319.200 C 361.686 319.200,362.121 318.705,362.479 318.100 C 362.837 317.495,363.596 316.460,364.165 315.800 C 364.734 315.140,365.199 314.415,365.200 314.188 C 365.200 313.962,365.560 313.517,366.000 313.200 C 366.440 312.883,366.800 312.303,366.800 311.912 C 366.800 311.520,366.958 311.200,367.151 311.200 C 367.345 311.200,367.727 310.660,368.000 310.000 C 368.273 309.340,368.633 308.800,368.800 308.800 C 368.967 308.800,369.327 308.260,369.600 307.600 C 369.873 306.940,370.255 306.400,370.449 306.400 C 370.642 306.400,370.800 306.130,370.800 305.800 C 370.800 305.470,370.980 305.200,371.200 305.200 C 371.420 305.200,371.600 304.930,371.600 304.600 C 371.600 304.270,371.760 304.000,371.957 304.000 C 372.153 304.000,372.423 303.563,372.557 303.028 C 372.691 302.493,373.037 301.818,373.324 301.528 C 373.991 300.855,375.200 298.434,375.200 297.772 C 375.200 297.494,375.335 297.207,375.500 297.133 C 375.876 296.966,377.175 294.836,377.471 293.900 C 377.593 293.515,377.852 293.200,378.047 293.200 C 378.241 293.200,378.400 292.840,378.400 292.400 C 378.400 291.960,378.580 291.600,378.800 291.600 C 379.020 291.600,379.200 291.232,379.200 290.783 C 379.200 290.334,379.546 289.596,379.968 289.142 C 380.390 288.689,380.970 287.526,381.255 286.559 C 381.541 285.592,381.915 284.800,382.087 284.800 C 382.259 284.800,382.400 284.440,382.400 284.000 C 382.400 283.560,382.580 283.200,382.800 283.200 C 383.020 283.200,383.200 282.840,383.200 282.400 C 383.200 281.960,383.380 281.600,383.600 281.600 C 383.820 281.600,384.000 281.364,384.000 281.075 C 384.000 280.786,384.360 279.805,384.800 278.894 C 385.240 277.984,385.600 276.971,385.600 276.643 C 385.600 276.315,385.780 275.936,386.000 275.800 C 386.220 275.664,386.400 275.203,386.400 274.776 C 386.400 274.349,386.580 274.000,386.800 274.000 C 387.020 274.000,387.200 273.651,387.200 273.224 C 387.200 272.797,387.380 272.336,387.600 272.200 C 387.820 272.064,388.000 271.637,388.000 271.252 C 388.000 270.866,388.360 269.805,388.800 268.894 C 389.240 267.984,389.600 266.900,389.600 266.486 C 389.600 266.072,389.723 265.610,389.874 265.459 C 390.315 265.019,391.156 262.342,391.435 260.495 C 391.577 259.557,391.852 258.692,392.046 258.571 C 392.241 258.451,392.400 257.723,392.400 256.953 C 392.400 256.121,392.562 255.653,392.800 255.800 C 393.038 255.947,393.200 255.479,393.200 254.647 C 393.200 253.877,393.380 253.136,393.600 253.000 C 393.820 252.864,394.000 252.123,394.000 251.353 C 394.000 250.521,394.162 250.053,394.400 250.200 C 394.641 250.349,394.800 249.812,394.800 248.847 C 394.800 247.967,394.980 247.136,395.200 247.000 C 395.420 246.864,395.600 245.953,395.600 244.976 C 395.600 243.999,395.780 243.200,396.000 243.200 C 396.220 243.200,396.400 242.480,396.400 241.600 C 396.400 240.720,396.580 240.000,396.800 240.000 C 397.020 240.000,397.200 239.021,397.200 237.824 C 397.200 236.627,397.380 235.536,397.600 235.400 C 397.820 235.264,398.000 234.274,398.000 233.200 C 398.000 232.126,398.180 231.136,398.400 231.000 C 398.620 230.864,398.800 229.539,398.800 228.056 C 398.800 226.433,398.999 225.161,399.300 224.860 C 399.689 224.471,399.800 218.955,399.800 200.000 C 399.800 181.045,399.689 175.529,399.300 175.140 C 398.999 174.839,398.800 173.567,398.800 171.944 C 398.800 170.461,398.620 169.136,398.400 169.000 C 398.180 168.864,398.000 167.763,398.000 166.553 C 398.000 165.188,397.848 164.447,397.600 164.600 C 397.352 164.753,397.200 164.012,397.200 162.647 C 397.200 161.437,397.020 160.336,396.800 160.200 C 396.580 160.064,396.400 159.243,396.400 158.376 C 396.400 157.509,396.220 156.800,396.000 156.800 C 395.780 156.800,395.600 155.990,395.600 155.000 C 395.600 154.010,395.420 153.200,395.200 153.200 C 394.980 153.200,394.800 152.480,394.800 151.600 C 394.800 150.720,394.620 150.000,394.400 150.000 C 394.180 150.000,394.000 149.381,394.000 148.624 C 394.000 147.867,393.820 147.136,393.600 147.000 C 393.380 146.864,393.200 146.234,393.200 145.600 C 393.200 144.966,393.020 144.336,392.800 144.200 C 392.580 144.064,392.400 143.434,392.400 142.800 C 392.400 142.166,392.241 141.549,392.046 141.429 C 391.852 141.308,391.565 140.353,391.409 139.305 C 391.253 138.257,390.990 137.220,390.825 137.000 C 390.659 136.780,390.290 135.700,390.003 134.600 C 389.717 133.500,389.329 132.429,389.141 132.220 C 388.953 132.011,388.800 131.426,388.800 130.920 C 388.800 130.414,388.620 130.000,388.400 130.000 C 388.180 130.000,388.000 129.728,388.000 129.395 C 388.000 128.807,387.833 128.382,386.862 126.505 C 386.608 126.013,386.400 125.248,386.400 124.805 C 386.400 124.362,386.253 124.000,386.072 124.000 C 385.892 124.000,385.500 123.100,385.200 122.000 C 384.900 120.900,384.508 120.000,384.328 120.000 C 384.147 120.000,384.000 119.640,384.000 119.200 C 384.000 118.760,383.820 118.400,383.600 118.400 C 383.380 118.400,383.200 118.040,383.200 117.600 C 383.200 117.160,383.020 116.800,382.800 116.800 C 382.580 116.800,382.400 116.440,382.400 116.000 C 382.400 115.560,382.220 115.200,382.000 115.200 C 381.780 115.200,381.600 114.851,381.600 114.424 C 381.600 113.997,381.420 113.536,381.200 113.400 C 380.980 113.264,380.800 112.803,380.800 112.376 C 380.800 111.949,380.665 111.599,380.500 111.597 C 380.149 111.593,379.200 109.663,379.200 108.954 C 379.200 108.686,379.065 108.407,378.900 108.333 C 378.630 108.213,377.422 106.111,376.240 103.703 C 375.998 103.210,375.665 102.805,375.500 102.803 C 375.335 102.801,375.195 102.485,375.190 102.100 C 375.184 101.715,374.554 100.418,373.790 99.219 C 373.025 98.019,372.400 96.804,372.400 96.519 C 372.400 96.233,372.248 96.000,372.063 96.000 C 371.877 96.000,371.313 95.198,370.809 94.218 C 370.305 93.237,369.557 92.075,369.146 91.634 C 368.736 91.194,368.400 90.545,368.400 90.193 C 368.400 89.841,368.220 89.664,368.000 89.800 C 367.780 89.936,367.600 89.767,367.600 89.424 C 367.600 89.081,367.420 88.800,367.200 88.800 C 366.980 88.800,366.800 88.575,366.799 88.300 C 366.799 88.025,366.259 87.170,365.600 86.400 C 364.941 85.630,364.401 84.775,364.401 84.500 C 364.400 84.225,364.262 84.000,364.094 84.000 C 363.926 84.000,363.344 83.280,362.800 82.400 C 362.256 81.520,361.686 80.800,361.533 80.800 C 361.379 80.800,361.150 80.485,361.023 80.100 C 360.896 79.715,360.299 78.832,359.696 78.137 C 357.753 75.898,357.204 75.200,357.386 75.200 C 357.484 75.200,357.167 74.777,356.682 74.261 C 356.197 73.744,355.350 72.719,354.800 71.982 C 354.250 71.245,353.260 70.090,352.600 69.416 C 351.940 68.741,350.877 67.492,350.238 66.640 C 349.176 65.224,346.250 62.197,342.767 58.910 C 342.015 58.200,340.506 56.715,339.413 55.610 C 337.348 53.521,335.888 53.103,333.800 54.000 M78.000 336.125 C 78.000 336.194,78.585 336.779,79.300 337.425 L 80.600 338.600 79.425 337.300 C 78.330 336.088,78.000 335.816,78.000 336.125 " stroke="none" fill="#f38cc4" fill-rule="evenodd"></path></g></svg>